HIERARCHY
ROOT Hips
{
	OFFSET 0.000000 89.005402 0.000000
	CHANNELS 6 Xposition Yposition Zposition Xrotation Yrotation Zrotation
	JOINT Spine
	{
		OFFSET 0.116900 10.681000 0.373400
		CHANNELS 3 Xrotation Yrotation Zrotation
		JOINT Spine1
		{
			OFFSET 0.000000 13.840401 0.053500
			CHANNELS 3 Xrotation Yrotation Zrotation
			JOINT Spine2
			{
				OFFSET 0.000000 14.712700 -0.366200
				CHANNELS 3 Xrotation Yrotation Zrotation
				JOINT Neck
				{
					OFFSET 0.000000 35.415497 -3.314200
					CHANNELS 3 Xrotation Yrotation Zrotation
					JOINT Head
					{
						OFFSET 0.000000 16.899200 1.218300
						CHANNELS 3 Xrotation Yrotation Zrotation
						JOINT HeadTop_End
						{
							OFFSET 0.000000 22.206207 2.192500
							CHANNELS 3 Xrotation Yrotation Zrotation
							End Site
							{
								OFFSET 0.000000 22.314178 0.000000
							}
						}
					}
				}
				JOINT LeftShoulder
				{
					OFFSET 12.896400 26.716293 -4.548400
					CHANNELS 3 Xrotation Yrotation Zrotation
					JOINT LeftArm
					{
						OFFSET 19.027000 -4.857010 -1.718400
						CHANNELS 3 Xrotation Yrotation Zrotation
						JOINT LeftForeArm
						{
							OFFSET 24.179897 0.000000 0.000000
							CHANNELS 3 Xrotation Yrotation Zrotation
							JOINT LeftHand
							{
								OFFSET 27.156403 0.000000 0.000000
								CHANNELS 3 Xrotation Yrotation Zrotation
								JOINT LeftHandIndex1
								{
									OFFSET 16.441200 0.000000 0.000000
									CHANNELS 3 Xrotation Yrotation Zrotation
									JOINT LeftHandIndex2
									{
										OFFSET 4.821899 0.000000 0.000000
										CHANNELS 3 Xrotation Yrotation Zrotation
										JOINT LeftHandIndex3
										{
											OFFSET 6.386497 0.000000 0.000000
											CHANNELS 3 Xrotation Yrotation Zrotation
											JOINT LeftHandIndex4
											{
												OFFSET 5.188988 0.000000 0.000000
												CHANNELS 3 Xrotation Yrotation Zrotation
												End Site
												{
													OFFSET -0.178703 5.185913 0.000177
												}
											}
										}
									}
								}
								JOINT LeftHandThumb1
								{
									OFFSET 6.534897 -5.032593 5.900300
									CHANNELS 3 Xrotation Yrotation Zrotation
									JOINT LeftHandThumb2
									{
										OFFSET 3.818176 -2.204422 2.204423
										CHANNELS 3 Xrotation Yrotation Zrotation
										JOINT LeftHandThumb3
										{
											OFFSET 3.252098 -1.877594 1.877601
											CHANNELS 3 Xrotation Yrotation Zrotation
											JOINT LeftHandThumb4
											{
												OFFSET 5.251778 -3.032120 3.032117
												CHANNELS 3 Xrotation Yrotation Zrotation
												End Site
												{
													OFFSET 0.000023 6.780014 0.000000
												}
											}
										}
									}
								}
							}
						}
					}
				}
				JOINT RightShoulder
				{
					OFFSET -12.896300 26.716293 -4.548400
					CHANNELS 3 Xrotation Yrotation Zrotation
					JOINT RightArm
					{
						OFFSET -19.027000 -4.857010 -1.718400
						CHANNELS 3 Xrotation Yrotation Zrotation
						JOINT RightForeArm
						{
							OFFSET -24.179897 0.000000 0.000000
							CHANNELS 3 Xrotation Yrotation Zrotation
							JOINT RightHand
							{
								OFFSET -27.156403 0.000000 0.000000
								CHANNELS 3 Xrotation Yrotation Zrotation
								JOINT RightHandThumb1
								{
									OFFSET -6.591202 -4.852203 5.988100
									CHANNELS 3 Xrotation Yrotation Zrotation
									JOINT RightHandThumb2
									{
										OFFSET -3.818176 -2.204422 2.204423
										CHANNELS 3 Xrotation Yrotation Zrotation
										JOINT RightHandThumb3
										{
											OFFSET -3.252098 -1.877594 1.877601
											CHANNELS 3 Xrotation Yrotation Zrotation
											JOINT RightHandThumb4
											{
												OFFSET -5.251778 -3.032120 3.032117
												CHANNELS 3 Xrotation Yrotation Zrotation
												End Site
												{
													OFFSET -0.000023 6.780014 0.000000
												}
											}
										}
									}
								}
								JOINT RightHandIndex1
								{
									OFFSET -16.029404 0.000000 0.000000
									CHANNELS 3 Xrotation Yrotation Zrotation
									JOINT RightHandIndex2
									{
										OFFSET -5.213303 0.000000 0.000000
										CHANNELS 3 Xrotation Yrotation Zrotation
										JOINT RightHandIndex3
										{
											OFFSET -6.386528 0.000000 0.000000
											CHANNELS 3 Xrotation Yrotation Zrotation
											JOINT RightHandIndex4
											{
												OFFSET -5.189026 0.000000 0.000000
												CHANNELS 3 Xrotation Yrotation Zrotation
												End Site
												{
													OFFSET 0.236702 5.183624 0.001972
												}
											}
										}
									}
								}
							}
						}
					}
				}
			}
		}
	}
	JOINT LeftUpLeg
	{
		OFFSET 14.073000 -7.904099 -1.463000
		CHANNELS 3 Xrotation Yrotation Zrotation
		JOINT LeftLeg
		{
			OFFSET -0.109806 -34.073280 4.093200
			CHANNELS 3 Xrotation Yrotation Zrotation
			JOINT LeftFoot
			{
				OFFSET 0.109806 -29.899420 -6.319000
				CHANNELS 3 Xrotation Yrotation Zrotation
				JOINT LeftToeBase
				{
					OFFSET 1.551100 -14.988700 20.535801
					CHANNELS 3 Xrotation Yrotation Zrotation
					JOINT LeftToe_End
					{
						OFFSET 0.221200 0.570800 13.248301
						CHANNELS 3 Xrotation Yrotation Zrotation
						End Site
						{
							OFFSET 0.000000 13.262435 0.000000
						}
					}
				}
			}
		}
	}
	JOINT RightUpLeg
	{
		OFFSET -13.839300 -7.904099 -1.463000
		CHANNELS 3 Xrotation Yrotation Zrotation
		JOINT RightLeg
		{
			OFFSET 0.109694 -34.073219 4.093300
			CHANNELS 3 Xrotation Yrotation Zrotation
			JOINT RightFoot
			{
				OFFSET -0.109694 -29.899384 -6.319200
				CHANNELS 3 Xrotation Yrotation Zrotation
				JOINT RightToeBase
				{
					OFFSET -1.551100 -14.988700 20.535801
					CHANNELS 3 Xrotation Yrotation Zrotation
					JOINT RightToe_End
					{
						OFFSET -0.221200 0.570900 13.248299
						CHANNELS 3 Xrotation Yrotation Zrotation
						End Site
						{
							OFFSET 0.000000 13.262440 0.000000
						}
					}
				}
			}
		}
	}
}
MOTION
Frames: 4
Frame Time: 0.033333
0.437983 11.615219 -4.404762 76.758479 -16.365241 11.892671 0.444554 4.048887 -14.748554 -0.151488 9.251355 -8.379386 0.457849 9.415319 -8.103346 -18.020708 -2.929145 4.877288 -7.519336 -5.688389 12.762769 0.000002 0.000000 0.000000 0.588980 -1.147539 -25.961624 -58.138741 -33.475959 -33.469546 0.000296 -97.883742 0.000316 -126.343924 -4.460671 1.174592 -2.843191 -2.499793 -25.627478 2.393076 4.722771 -53.724608 4.716627 5.740427 -78.801566 -0.000001 -0.000001 0.000001 24.400019 -27.605171 -4.052429 12.960993 30.616231 3.752231 -5.126110 55.915204 27.876818 0.000002 -0.000001 0.000000 -1.420765 -4.447984 -18.430579 -58.283036 36.834930 65.173453 0.000008 116.234424 -0.000004 53.791216 -6.387246 4.191389 8.377138 -4.904141 11.021999 21.620199 -18.183917 -18.379209 -0.702858 -49.821213 -32.535125 0.000001 0.000000 0.000004 -1.101401 1.407140 15.159518 1.422359 -3.352188 45.974085 0.615852 -2.316442 29.773112 0.000001 -0.000000 0.000000 4.201775 18.330081 14.909815 23.109054 1.072522 9.512355 20.898055 -1.994060 -17.600271 32.379588 18.499704 22.996280 -0.000000 0.000001 0.000000 -17.907962 -36.474197 -36.432851 51.585840 -10.268314 7.387902 10.715735 0.583543 35.630426 -7.068864 -0.504362 4.745037 -0.000002 0.000001 -0.000001 
0.798130 11.482864 -2.803383 76.337582 -17.451593 11.731534 0.481739 4.615571 -12.160440 0.060592 9.769900 -7.423655 0.527995 9.948336 -7.071892 -17.833892 -2.622083 4.397799 -6.965464 -5.633642 9.324863 0.000004 0.000000 0.000000 -0.296190 0.429767 -22.457635 -57.735732 -26.063879 -38.723641 -0.000274 -97.637083 -0.000256 -121.401012 -1.581364 -4.619887 -2.613548 -2.060875 -25.437938 2.349548 4.690612 -53.193950 4.550109 5.705091 -77.131475 -0.000002 -0.000001 -0.000000 24.590776 -31.020213 -2.197725 17.939825 27.287239 2.626210 -5.212953 54.594310 27.726697 0.000003 -0.000003 -0.000003 -1.187397 -3.598343 -17.248220 -59.721992 40.181709 66.712138 -0.000068 114.463063 0.000064 53.323557 -6.559370 3.339794 8.377139 -4.904140 11.021997 21.620199 -18.183914 -18.379209 -0.702856 -49.821210 -32.535125 -0.000000 -0.000000 -0.000000 -1.162143 1.579150 15.324221 1.397829 -3.328332 45.552908 0.620610 -2.324738 29.890711 -0.000001 -0.000000 0.000001 4.999695 18.017768 13.958547 23.986030 -1.347266 9.710103 18.744739 -3.280717 -16.585607 42.256570 16.009192 13.156764 0.000000 -0.000000 -0.000000 -16.098326 -37.453407 -35.595295 46.303874 -12.179413 6.430767 15.197236 2.767123 34.665187 -5.227615 -0.603359 5.494647 0.000001 -0.000001 -0.000001 
1.130648 11.756447 -0.603790 75.903421 -18.084422 11.496486 0.728096 5.046033 -9.570780 0.530415 10.107440 -6.472941 0.892161 10.313249 -5.997124 -17.598035 -2.345770 3.901665 -7.381311 -5.782227 6.091201 -0.000002 0.000000 0.000000 -1.358141 1.836933 -18.900689 -60.663315 -19.878000 -44.330711 0.000117 -97.363759 0.000106 -117.348401 0.377074 -7.453838 -2.384631 -1.604554 -25.290720 2.301554 4.654420 -52.604843 4.379107 5.663516 -75.405316 0.000001 -0.000001 0.000001 24.350797 -33.860943 -1.269356 23.962339 22.683434 2.057618 -5.093151 52.640370 27.140838 -0.000002 -0.000001 -0.000001 -0.917075 -2.468213 -16.196771 -60.389234 42.382731 67.826613 -0.000001 113.492144 -0.000003 52.780471 -6.300319 1.908888 8.377139 -4.904142 11.021998 21.620201 -18.183910 -18.379209 -0.702856 -49.821210 -32.535125 -0.000000 0.000001 -0.000004 -1.227294 1.746379 15.536288 1.370739 -3.301592 45.084477 0.623757 -2.330184 29.968032 -0.000001 0.000001 0.000001 5.842598 18.012797 12.646525 23.603518 -3.596451 9.902856 17.595423 -4.501490 -15.472258 50.743251 7.088515 3.896371 -0.000001 0.000001 0.000000 -13.010248 -39.208803 -33.642773 38.535173 -14.769169 5.479709 20.186100 4.930527 33.386702 -3.569252 -0.793376 6.622036 0.000001 0.000001 0.000002 
1.467461 12.285217 1.850708 75.479253 -18.381099 11.157378 1.244098 5.348303 -7.187539 0.918388 10.147698 -5.559611 1.226717 10.363107 -4.958851 -17.356820 -1.996775 3.435644 -8.415053 -5.873102 3.343732 0.000002 0.000000 0.000000 -2.604627 3.210409 -15.227543 -64.194182 -13.694849 -47.881702 -0.000019 -98.262715 -0.000051 -115.024484 2.706658 -7.154214 -2.168105 -1.227284 -24.941807 2.277530 4.636026 -52.308054 4.237036 5.624778 -73.960806 0.000002 -0.000000 0.000002 23.774739 -36.051463 -1.031387 28.890816 18.201226 2.039403 -4.886413 50.337012 26.310889 0.000001 0.000001 0.000000 -0.633525 -1.108413 -15.327788 -60.056849 43.398916 68.342524 0.000005 113.327475 -0.000009 51.605382 -5.601207 -0.419195 8.377137 -4.904140 11.021999 21.620197 -18.183914 -18.379213 -0.702856 -49.821206 -32.535125 0.000001 -0.000000 0.000002 -1.275794 1.935809 15.512519 1.357394 -3.288261 44.852411 0.635133 -2.349799 30.246765 0.000002 -0.000000 0.000001 6.746825 18.317203 11.231691 22.429349 -5.638166 9.985062 18.825463 -4.942308 -13.600855 49.634599 -1.339144 -0.442147 -0.000000 -0.000002 -0.000000 -11.938959 -40.175367 -32.871713 33.424128 -16.165567 4.528673 22.136949 5.811638 31.417788 -2.233460 -0.938550 7.375539 0.000000 -0.000001 0.000000 
